<svg id="visual" viewBox="0 0 900 600" width="900" height="600" xmlns="http://www.w3.org/2000/svg" xmlns:xlink="http://www.w3.org/1999/xlink" version="1.1"><rect x="0" y="0" width="900" height="600" fill="#001220"></rect><path d="M0 151L21.5 155.7C43 160.3 86 169.7 128.8 171.8C171.7 174 214.3 169 257.2 174.7C300 180.3 343 196.7 385.8 207.3C428.7 218 471.3 223 514.2 213C557 203 600 178 642.8 177.5C685.7 177 728.3 201 771.2 207.3C814 213.7 857 202.3 878.5 196.7L900 191L900 0L878.5 0C857 0 814 0 771.2 0C728.3 0 685.7 0 642.8 0C600 0 557 0 514.2 0C471.3 0 428.7 0 385.8 0C343 0 300 0 257.2 0C214.3 0 171.7 0 128.8 0C86 0 43 0 21.5 0L0 0Z" fill="#fa7268"></path><path d="M0 118L21.5 123C43 128 86 138 128.8 144.2C171.7 150.3 214.3 152.7 257.2 156.7C300 160.7 343 166.3 385.8 161.7C428.7 157 471.3 142 514.2 137.7C557 133.3 600 139.7 642.8 151.8C685.7 164 728.3 182 771.2 181.2C814 180.3 857 160.7 878.5 150.8L900 141L900 0L878.5 0C857 0 814 0 771.2 0C728.3 0 685.7 0 642.8 0C600 0 557 0 514.2 0C471.3 0 428.7 0 385.8 0C343 0 300 0 257.2 0C214.3 0 171.7 0 128.8 0C86 0 43 0 21.5 0L0 0Z" fill="#ef5f67"></path><path d="M0 87L21.5 92.7C43 98.3 86 109.7 128.8 115.3C171.7 121 214.3 121 257.2 124.2C300 127.3 343 133.7 385.8 137.3C428.7 141 471.3 142 514.2 138.5C557 135 600 127 642.8 119.7C685.7 112.3 728.3 105.7 771.2 105.5C814 105.3 857 111.7 878.5 114.8L900 118L900 0L878.5 0C857 0 814 0 771.2 0C728.3 0 685.7 0 642.8 0C600 0 557 0 514.2 0C471.3 0 428.7 0 385.8 0C343 0 300 0 257.2 0C214.3 0 171.7 0 128.8 0C86 0 43 0 21.5 0L0 0Z" fill="#e34c67"></path><path d="M0 60L21.5 66.8C43 73.7 86 87.3 128.8 94.2C171.7 101 214.3 101 257.2 101.2C300 101.3 343 101.7 385.8 101.7C428.7 101.7 471.3 101.3 514.2 97.5C557 93.7 600 86.3 642.8 85.5C685.7 84.7 728.3 90.3 771.2 94C814 97.7 857 99.3 878.5 100.2L900 101L900 0L878.5 0C857 0 814 0 771.2 0C728.3 0 685.7 0 642.8 0C600 0 557 0 514.2 0C471.3 0 428.7 0 385.8 0C343 0 300 0 257.2 0C214.3 0 171.7 0 128.8 0C86 0 43 0 21.5 0L0 0Z" fill="#d53867"></path><path d="M0 42L21.5 40.3C43 38.7 86 35.3 128.8 35.5C171.7 35.7 214.3 39.3 257.2 43.3C300 47.3 343 51.7 385.8 51.3C428.7 51 471.3 46 514.2 46.8C557 47.7 600 54.3 642.8 53.2C685.7 52 728.3 43 771.2 44.7C814 46.3 857 58.7 878.5 64.8L900 71L900 0L878.5 0C857 0 814 0 771.2 0C728.3 0 685.7 0 642.8 0C600 0 557 0 514.2 0C471.3 0 428.7 0 385.8 0C343 0 300 0 257.2 0C214.3 0 171.7 0 128.8 0C86 0 43 0 21.5 0L0 0Z" fill="#c62368"></path></svg>