<svg id="visual" viewBox="0 0 900 600" width="900" height="600" xmlns="http://www.w3.org/2000/svg" xmlns:xlink="http://www.w3.org/1999/xlink" version="1.1"><rect x="0" y="0" width="900" height="600" fill="#001220"></rect><path d="M0 395L21.5 395.8C43 396.7 86 398.3 128.8 390.2C171.7 382 214.3 364 257.2 378.7C300 393.3 343 440.7 385.8 451.2C428.7 461.7 471.3 435.3 514.2 429.3C557 423.3 600 437.7 642.8 441.3C685.7 445 728.3 438 771.2 442.3C814 446.7 857 462.3 878.5 470.2L900 478L900 0L878.5 0C857 0 814 0 771.2 0C728.3 0 685.7 0 642.8 0C600 0 557 0 514.2 0C471.3 0 428.7 0 385.8 0C343 0 300 0 257.2 0C214.3 0 171.7 0 128.8 0C86 0 43 0 21.5 0L0 0Z" fill="#fa7268"></path><path d="M0 346L21.5 337C43 328 86 310 128.8 301C171.7 292 214.3 292 257.2 295.8C300 299.7 343 307.3 385.8 312.2C428.7 317 471.3 319 514.2 313.8C557 308.7 600 296.3 642.8 294.8C685.7 293.3 728.3 302.7 771.2 325.3C814 348 857 384 878.5 402L900 420L900 0L878.5 0C857 0 814 0 771.2 0C728.3 0 685.7 0 642.8 0C600 0 557 0 514.2 0C471.3 0 428.7 0 385.8 0C343 0 300 0 257.2 0C214.3 0 171.7 0 128.8 0C86 0 43 0 21.5 0L0 0Z" fill="#f16367"></path><path d="M0 320L21.5 309.7C43 299.3 86 278.7 128.8 274.5C171.7 270.3 214.3 282.7 257.2 290.5C300 298.3 343 301.7 385.8 296.5C428.7 291.3 471.3 277.7 514.2 270.5C557 263.3 600 262.7 642.8 268.7C685.7 274.7 728.3 287.3 771.2 300.7C814 314 857 328 878.5 335L900 342L900 0L878.5 0C857 0 814 0 771.2 0C728.3 0 685.7 0 642.8 0C600 0 557 0 514.2 0C471.3 0 428.7 0 385.8 0C343 0 300 0 257.2 0C214.3 0 171.7 0 128.8 0C86 0 43 0 21.5 0L0 0Z" fill="#e85467"></path><path d="M0 207L21.5 200.8C43 194.7 86 182.3 128.8 180.2C171.7 178 214.3 186 257.2 184.2C300 182.3 343 170.7 385.8 176.3C428.7 182 471.3 205 514.2 215C557 225 600 222 642.8 209C685.7 196 728.3 173 771.2 172.5C814 172 857 194 878.5 205L900 216L900 0L878.5 0C857 0 814 0 771.2 0C728.3 0 685.7 0 642.8 0C600 0 557 0 514.2 0C471.3 0 428.7 0 385.8 0C343 0 300 0 257.2 0C214.3 0 171.7 0 128.8 0C86 0 43 0 21.5 0L0 0Z" fill="#de4467"></path><path d="M0 181L21.5 181.7C43 182.3 86 183.7 128.8 170.7C171.7 157.7 214.3 130.3 257.2 115.8C300 101.3 343 99.7 385.8 110.3C428.7 121 471.3 144 514.2 155.2C557 166.3 600 165.7 642.8 169.7C685.7 173.7 728.3 182.3 771.2 179.2C814 176 857 161 878.5 153.5L900 146L900 0L878.5 0C857 0 814 0 771.2 0C728.3 0 685.7 0 642.8 0C600 0 557 0 514.2 0C471.3 0 428.7 0 385.8 0C343 0 300 0 257.2 0C214.3 0 171.7 0 128.8 0C86 0 43 0 21.5 0L0 0Z" fill="#d23467"></path><path d="M0 88L21.5 93.8C43 99.7 86 111.3 128.8 107.3C171.7 103.3 214.3 83.7 257.2 75.7C300 67.7 343 71.3 385.8 71.7C428.7 72 471.3 69 514.2 70.2C557 71.3 600 76.7 642.8 73.3C685.7 70 728.3 58 771.2 53.3C814 48.7 857 51.3 878.5 52.7L900 54L900 0L878.5 0C857 0 814 0 771.2 0C728.3 0 685.7 0 642.8 0C600 0 557 0 514.2 0C471.3 0 428.7 0 385.8 0C343 0 300 0 257.2 0C214.3 0 171.7 0 128.8 0C86 0 43 0 21.5 0L0 0Z" fill="#c62368"></path></svg>