<svg id="visual" viewBox="0 0 960 540" width="960" height="540" xmlns="http://www.w3.org/2000/svg" xmlns:xlink="http://www.w3.org/1999/xlink" version="1.1"><rect x="0" y="0" width="960" height="540" fill="#1A1C24"></rect><path d="M0 237L22.8 239.2C45.7 241.3 91.3 245.7 137 230C182.7 214.3 228.3 178.7 274 178.2C319.7 177.7 365.3 212.3 411.2 203.5C457 194.7 503 142.3 548.8 137.2C594.7 132 640.3 174 686 180.8C731.7 187.7 777.3 159.3 823 139.3C868.7 119.3 914.3 107.7 937.2 101.8L960 96L960 541L937.2 541C914.3 541 868.7 541 823 541C777.3 541 731.7 541 686 541C640.3 541 594.7 541 548.8 541C503 541 457 541 411.2 541C365.3 541 319.7 541 274 541C228.3 541 182.7 541 137 541C91.3 541 45.7 541 22.8 541L0 541Z" fill="#3b82f6"></path><path d="M0 192L22.8 200.7C45.7 209.3 91.3 226.7 137 241.5C182.7 256.3 228.3 268.7 274 276.3C319.7 284 365.3 287 411.2 270C457 253 503 216 548.8 204C594.7 192 640.3 205 686 222.7C731.7 240.3 777.3 262.7 823 251.8C868.7 241 914.3 197 937.2 175L960 153L960 541L937.2 541C914.3 541 868.7 541 823 541C777.3 541 731.7 541 686 541C640.3 541 594.7 541 548.8 541C503 541 457 541 411.2 541C365.3 541 319.7 541 274 541C228.3 541 182.7 541 137 541C91.3 541 45.7 541 22.8 541L0 541Z" fill="#3f5ca2"></path><path d="M0 208L22.8 210C45.7 212 91.3 216 137 217.3C182.7 218.7 228.3 217.3 274 223C319.7 228.7 365.3 241.3 411.2 257.8C457 274.3 503 294.7 548.8 291.3C594.7 288 640.3 261 686 259.2C731.7 257.3 777.3 280.7 823 282.2C868.7 283.7 914.3 263.3 937.2 253.2L960 243L960 541L937.2 541C914.3 541 868.7 541 823 541C777.3 541 731.7 541 686 541C640.3 541 594.7 541 548.8 541C503 541 457 541 411.2 541C365.3 541 319.7 541 274 541C228.3 541 182.7 541 137 541C91.3 541 45.7 541 22.8 541L0 541Z" fill="#333956"></path><path d="M0 353L22.8 345.5C45.7 338 91.3 323 137 310.8C182.7 298.7 228.3 289.3 274 299.2C319.7 309 365.3 338 411.2 349.5C457 361 503 355 548.8 344.3C594.7 333.7 640.3 318.3 686 308.7C731.7 299 777.3 295 823 289.2C868.7 283.3 914.3 275.7 937.2 271.8L960 268L960 541L937.2 541C914.3 541 868.7 541 823 541C777.3 541 731.7 541 686 541C640.3 541 594.7 541 548.8 541C503 541 457 541 411.2 541C365.3 541 319.7 541 274 541C228.3 541 182.7 541 137 541C91.3 541 45.7 541 22.8 541L0 541Z" fill="#2a2c3a"></path><path d="M0 358L22.8 356.2C45.7 354.3 91.3 350.7 137 353.5C182.7 356.3 228.3 365.7 274 366.3C319.7 367 365.3 359 411.2 366.2C457 373.3 503 395.7 548.8 395.7C594.7 395.7 640.3 373.3 686 360.8C731.7 348.3 777.3 345.7 823 341.8C868.7 338 914.3 333 937.2 330.5L960 328L960 541L937.2 541C914.3 541 868.7 541 823 541C777.3 541 731.7 541 686 541C640.3 541 594.7 541 548.8 541C503 541 457 541 411.2 541C365.3 541 319.7 541 274 541C228.3 541 182.7 541 137 541C91.3 541 45.7 541 22.8 541L0 541Z" fill="#333956"></path><path d="M0 451L22.8 440.3C45.7 429.7 91.3 408.3 137 396.3C182.7 384.3 228.3 381.7 274 391C319.7 400.3 365.3 421.7 411.2 433.2C457 444.7 503 446.3 548.8 440.3C594.7 434.3 640.3 420.7 686 415.7C731.7 410.7 777.3 414.3 823 414C868.7 413.7 914.3 409.3 937.2 407.2L960 405L960 541L937.2 541C914.3 541 868.7 541 823 541C777.3 541 731.7 541 686 541C640.3 541 594.7 541 548.8 541C503 541 457 541 411.2 541C365.3 541 319.7 541 274 541C228.3 541 182.7 541 137 541C91.3 541 45.7 541 22.8 541L0 541Z" fill="#3f5ca2"></path><path d="M0 479L22.8 482.8C45.7 486.7 91.3 494.3 137 495.2C182.7 496 228.3 490 274 488.3C319.7 486.7 365.3 489.3 411.2 491.8C457 494.3 503 496.7 548.8 493.3C594.7 490 640.3 481 686 472.7C731.7 464.3 777.3 456.7 823 460.2C868.7 463.7 914.3 478.3 937.2 485.7L960 493L960 541L937.2 541C914.3 541 868.7 541 823 541C777.3 541 731.7 541 686 541C640.3 541 594.7 541 548.8 541C503 541 457 541 411.2 541C365.3 541 319.7 541 274 541C228.3 541 182.7 541 137 541C91.3 541 45.7 541 22.8 541L0 541Z" fill="#3b82f6"></path></svg>