<svg id="visual" viewBox="0 0 960 540" width="960" height="540" xmlns="http://www.w3.org/2000/svg" xmlns:xlink="http://www.w3.org/1999/xlink" version="1.1"><rect x="0" y="0" width="960" height="540" fill="#1A1C24"></rect><path d="M0 170L22.8 167.8C45.7 165.7 91.3 161.3 137 161.2C182.7 161 228.3 165 274 163.3C319.7 161.7 365.3 154.3 411.2 159.5C457 164.7 503 182.3 548.8 199.3C594.7 216.3 640.3 232.7 686 224.5C731.7 216.3 777.3 183.7 823 164C868.7 144.3 914.3 137.7 937.2 134.3L960 131L960 541L937.2 541C914.3 541 868.7 541 823 541C777.3 541 731.7 541 686 541C640.3 541 594.7 541 548.8 541C503 541 457 541 411.2 541C365.3 541 319.7 541 274 541C228.3 541 182.7 541 137 541C91.3 541 45.7 541 22.8 541L0 541Z" fill="#2e212e"></path><path d="M0 221L22.8 233.2C45.7 245.3 91.3 269.7 137 269C182.7 268.3 228.3 242.7 274 236.8C319.7 231 365.3 245 411.2 251C457 257 503 255 548.8 259.7C594.7 264.3 640.3 275.7 686 266.8C731.7 258 777.3 229 823 222.5C868.7 216 914.3 232 937.2 240L960 248L960 541L937.2 541C914.3 541 868.7 541 823 541C777.3 541 731.7 541 686 541C640.3 541 594.7 541 548.8 541C503 541 457 541 411.2 541C365.3 541 319.7 541 274 541C228.3 541 182.7 541 137 541C91.3 541 45.7 541 22.8 541L0 541Z" fill="#2a202a"></path><path d="M0 327L22.8 326.3C45.7 325.7 91.3 324.3 137 320C182.7 315.7 228.3 308.3 274 293.8C319.7 279.3 365.3 257.7 411.2 256.2C457 254.7 503 273.3 548.8 286.7C594.7 300 640.3 308 686 304.2C731.7 300.3 777.3 284.7 823 274C868.7 263.3 914.3 257.7 937.2 254.8L960 252L960 541L937.2 541C914.3 541 868.7 541 823 541C777.3 541 731.7 541 686 541C640.3 541 594.7 541 548.8 541C503 541 457 541 411.2 541C365.3 541 319.7 541 274 541C228.3 541 182.7 541 137 541C91.3 541 45.7 541 22.8 541L0 541Z" fill="#261f26"></path><path d="M0 331L22.8 331C45.7 331 91.3 331 137 322.7C182.7 314.3 228.3 297.7 274 300C319.7 302.3 365.3 323.7 411.2 335.3C457 347 503 349 548.8 340.3C594.7 331.7 640.3 312.3 686 302.5C731.7 292.7 777.3 292.3 823 298.7C868.7 305 914.3 318 937.2 324.5L960 331L960 541L937.2 541C914.3 541 868.7 541 823 541C777.3 541 731.7 541 686 541C640.3 541 594.7 541 548.8 541C503 541 457 541 411.2 541C365.3 541 319.7 541 274 541C228.3 541 182.7 541 137 541C91.3 541 45.7 541 22.8 541L0 541Z" fill="#241e24"></path><path d="M0 420L22.8 412C45.7 404 91.3 388 137 375.2C182.7 362.3 228.3 352.7 274 344.2C319.7 335.7 365.3 328.3 411.2 328C457 327.7 503 334.3 548.8 335.7C594.7 337 640.3 333 686 337.2C731.7 341.3 777.3 353.7 823 364.7C868.7 375.7 914.3 385.3 937.2 390.2L960 395L960 541L937.2 541C914.3 541 868.7 541 823 541C777.3 541 731.7 541 686 541C640.3 541 594.7 541 548.8 541C503 541 457 541 411.2 541C365.3 541 319.7 541 274 541C228.3 541 182.7 541 137 541C91.3 541 45.7 541 22.8 541L0 541Z" fill="#261f26"></path><path d="M0 407L22.8 405.5C45.7 404 91.3 401 137 398.8C182.7 396.7 228.3 395.3 274 394.3C319.7 393.3 365.3 392.7 411.2 396.7C457 400.7 503 409.3 548.8 412.3C594.7 415.3 640.3 412.7 686 416.7C731.7 420.7 777.3 431.3 823 427.5C868.7 423.7 914.3 405.3 937.2 396.2L960 387L960 541L937.2 541C914.3 541 868.7 541 823 541C777.3 541 731.7 541 686 541C640.3 541 594.7 541 548.8 541C503 541 457 541 411.2 541C365.3 541 319.7 541 274 541C228.3 541 182.7 541 137 541C91.3 541 45.7 541 22.8 541L0 541Z" fill="#2a202a"></path><path d="M0 446L22.8 445.3C45.7 444.7 91.3 443.3 137 445.5C182.7 447.7 228.3 453.3 274 453.8C319.7 454.3 365.3 449.7 411.2 456C457 462.3 503 479.7 548.8 482.5C594.7 485.3 640.3 473.7 686 467.3C731.7 461 777.3 460 823 460.2C868.7 460.3 914.3 461.7 937.2 462.3L960 463L960 541L937.2 541C914.3 541 868.7 541 823 541C777.3 541 731.7 541 686 541C640.3 541 594.7 541 548.8 541C503 541 457 541 411.2 541C365.3 541 319.7 541 274 541C228.3 541 182.7 541 137 541C91.3 541 45.7 541 22.8 541L0 541Z" fill="#2e212e"></path></svg>